<?xml version="1.0" encoding="utf-8"?>
<!-- Generator: Adobe Illustrator 16.0.0, SVG Export Plug-In . SVG Version: 6.00 Build 0)  -->
<!DOCTYPE svg PUBLIC "-//W3C//DTD SVG 1.1//EN" "http://www.w3.org/Graphics/SVG/1.1/DTD/svg11.dtd">
<svg version="1.1" id="Layer_1" xmlns="http://www.w3.org/2000/svg" xmlns:xlink="http://www.w3.org/1999/xlink" x="0px" y="0px"
	 width="25px" height="25px" viewBox="0 0 25 25" enable-background="new 0 0 25 25" xml:space="preserve">
<path fill="#FFFFFF" d="M23.5,10H15V1.5C15,1.225,14.777,1,14.5,1h-4C10.224,1,10,1.225,10,1.5V10H1.5C1.225,10,1,10.223,1,10.5v4
	C1,14.775,1.225,15,1.5,15H10v8.5c0,0.277,0.224,0.5,0.5,0.5h4c0.277,0,0.5-0.223,0.5-0.5V15h8.5c0.277,0,0.5-0.225,0.5-0.5v-4
	C24,10.223,23.777,10,23.5,10z"/>
</svg>
