<?xml version="1.0" encoding="utf-8"?>
<!-- Generator: Adobe Illustrator 16.0.0, SVG Export Plug-In . SVG Version: 6.00 Build 0)  -->
<!DOCTYPE svg PUBLIC "-//W3C//DTD SVG 1.1//EN" "http://www.w3.org/Graphics/SVG/1.1/DTD/svg11.dtd">
<svg version="1.1" id="Layer_1" xmlns="http://www.w3.org/2000/svg" xmlns:xlink="http://www.w3.org/1999/xlink" x="0px" y="0px"
	 width="150px" height="180px" viewBox="0 0 150 180" enable-background="new 0 0 150 180" xml:space="preserve">
<g>
	<g>
		<path fill="#8367D8" d="M55.733,56.19c-1.104,0-1.993-0.896-1.993-2C53.74,37.139,63,23.239,75,23.003V23l0.298,0.003
			c11.748,0.236,21.251,14.126,21.251,31.165c0,1.104-0.897,2-2.002,2s-2.001-0.896-2.001-2c0-14.902-7.795-27.04-17.407-27.167
			c-9.612,0.127-17.406,12.275-17.406,27.189C57.733,55.295,56.837,56.19,55.733,56.19z"/>
	</g>
	
		<rect x="37" y="24" transform="matrix(0.8906 -0.4548 0.4548 0.8906 -22.7535 32.4174)" fill="#FFFFFF" width="38.001" height="79"/>
	<path fill="#8367D8" d="M56.171,110.011L18.423,36.091l37.405-19.102l37.748,73.919L56.171,110.011z M23.805,37.834l34.109,66.795
		l30.281-15.464l-34.11-66.795L23.805,37.834z"/>
	
		<rect x="76" y="20" transform="matrix(0.8991 0.4378 -0.4378 0.8991 35.6398 -35.5874)" fill="#FFFFFF" width="38.001" height="79"/>
	<path fill="#8367D8" d="M95.71,106.005l-37.762-18.39l36.342-74.62l37.761,18.39L95.71,106.005z M63.296,85.771l30.568,14.886
		l32.839-67.428L96.136,18.343L63.296,85.771z"/>
	
		<rect x="61.999" y="44" transform="matrix(0.9983 -0.0585 0.0585 0.9983 -4.7452 4.8806)" fill="#FFFFFF" width="38.001" height="79"/>
	<path fill="#8367D8" d="M62.461,126.157L57.61,43.299l41.928-2.455l4.852,82.857L62.461,126.157z M61.836,47.059l4.384,74.872
		l33.942-1.989L95.778,45.07L61.836,47.059z"/>
	<polygon fill="#FFFFFF" points="120.675,66 27.325,66 21,161 127,161 	"/>
	<path fill="#8367D8" d="M129.138,163l-6.325-95l-0.221-3.306L122.188,64l-4.991-8.595c-0.191,1.543-1.009,2.99-2.452,3.744
		L117.563,64H30.474l2.731-4.704c-1.237-0.757-2.197-2.008-2.449-3.748L25.849,64l-0.446,0.768L25.188,68l-6.325,95H129.138z
		 M118.804,68l6.059,91H23.138l6.059-91H118.804z"/>
	<g>
		<g>
			<path fill="#8367D8" d="M95.02,84.426c-2.851,0-5.169-2.32-5.169-5.171s2.318-5.17,5.169-5.17c2.852,0,5.171,2.319,5.171,5.17
				S97.871,84.426,95.02,84.426z M95.02,76.085c-1.747,0-3.169,1.422-3.169,3.17s1.422,3.171,3.169,3.171
				c1.748,0,3.171-1.423,3.171-3.171S96.768,76.085,95.02,76.085z"/>
		</g>
	</g>
	<g>
		<g>
			<path fill="#8367D8" d="M56.02,84.426c-2.85,0-5.169-2.32-5.169-5.171s2.319-5.17,5.169-5.17c2.851,0,5.171,2.319,5.171,5.17
				S58.871,84.426,56.02,84.426z M56.02,76.085c-1.748,0-3.169,1.422-3.169,3.17s1.421,3.171,3.169,3.171
				c1.749,0,3.171-1.423,3.171-3.171S57.768,76.085,56.02,76.085z"/>
		</g>
	</g>
	<g>
		<path fill="#8367D8" d="M75,111l-0.16-0.003c-11.748-0.237-21.18-14.174-21.18-31.271c0-1.104,0.932-2,2.036-2
			s2.019,0.896,2.019,2c0,14.96,7.802,27.146,17.414,27.273c9.613-0.128,17.411-12.341,17.411-27.335c0-1.104,0.898-2,2.003-2
			s1.855,0.896,1.855,2C96.398,96.795,87,110.76,75,110.997V111z"/>
	</g>
</g>
</svg>
