<?xml version="1.0" encoding="utf-8"?>
<!-- Generator: Adobe Illustrator 16.0.0, SVG Export Plug-In . SVG Version: 6.00 Build 0)  -->
<!DOCTYPE svg PUBLIC "-//W3C//DTD SVG 1.1//EN" "http://www.w3.org/Graphics/SVG/1.1/DTD/svg11.dtd">
<svg version="1.1" id="Layer_1" xmlns="http://www.w3.org/2000/svg" xmlns:xlink="http://www.w3.org/1999/xlink" x="0px" y="0px"
	 width="15px" height="15px" viewBox="0 0 15 15" enable-background="new 0 0 15 15" xml:space="preserve">
<g>
	<path fill="#252525" d="M10.134,2.078l-3.75,2.166C6.088,4.415,5.71,4.313,5.54,4.017S5.469,3.344,5.765,3.172l3.75-2.165
		c0.297-0.171,0.674-0.069,0.844,0.225C10.531,1.527,10.43,1.906,10.134,2.078z M6.693,4.777l3.75-2.165l2.166,3.75l-3.75,2.166
		L6.693,4.777z M13.536,7.97l-3.75,2.164c-0.296,0.171-0.675,0.069-0.845-0.226c-0.17-0.297-0.068-0.676,0.225-0.846l3.75-2.164
		c0.297-0.171,0.674-0.069,0.845,0.227C13.936,7.42,13.833,7.8,13.536,7.97z M0.613,9.715l6.852-3.598l0.619,1.071l-6.542,4.135
		c-0.444,0.257-1.011,0.104-1.268-0.339C0.018,10.539,0.171,9.973,0.613,9.715z M7.405,12.84c0-0.342,0.278-0.617,0.619-0.617h5.567
		c0.343,0,0.617,0.275,0.617,0.617s0,0.618,0,0.618l0.64-0.015l-0.021,0.633H6.788l-0.029-0.594l0.609-0.024
		C7.367,13.458,7.405,13.182,7.405,12.84z"/>
</g>
</svg>
