<?xml version="1.0" encoding="utf-8"?>
<!-- Generator: Adobe Illustrator 16.0.0, SVG Export Plug-In . SVG Version: 6.00 Build 0)  -->
<!DOCTYPE svg PUBLIC "-//W3C//DTD SVG 1.1//EN" "http://www.w3.org/Graphics/SVG/1.1/DTD/svg11.dtd">
<svg version="1.1" id="Layer_1" xmlns="http://www.w3.org/2000/svg" xmlns:xlink="http://www.w3.org/1999/xlink" x="0px" y="0px"
	 width="15px" height="15px" viewBox="0 0 15 15" enable-background="new 0 0 15 15" xml:space="preserve">
<g>
	<g>
		<path fill="#8367D8" d="M1.223,11.394c-0.359,0-0.695-0.192-0.875-0.504C0.07,10.407,0.235,9.788,0.715,9.508l6.257-3.285
			L6.228,4.934L6.39,4.84l3.68-2.124l0.092,0.165l2.122,3.673l-0.16,0.094L8.444,8.772l-0.744-1.29l-5.969,3.773
			C1.574,11.348,1.399,11.394,1.223,11.394z M6.611,5.036l0.751,1.299L0.852,9.754C0.51,9.953,0.391,10.401,0.59,10.749
			c0.194,0.336,0.659,0.461,0.996,0.266l6.211-3.926l0.751,1.3L11.9,6.454L9.964,3.101L6.611,5.036z"/>
	</g>
	<g>
		<path fill="#8367D8" d="M9.094,10.241L9.094,10.241c-0.258,0-0.496-0.139-0.624-0.36C8.271,9.536,8.39,9.095,8.731,8.896
			l3.514-2.027c0.334-0.192,0.793-0.067,0.984,0.264c0.098,0.164,0.124,0.357,0.074,0.543c-0.049,0.187-0.169,0.343-0.337,0.441
			l-3.514,2.026C9.344,10.207,9.219,10.241,9.094,10.241z M12.604,7.053c-0.075,0-0.151,0.021-0.219,0.059L8.872,9.14
			C8.664,9.261,8.593,9.53,8.713,9.741c0.114,0.199,0.395,0.277,0.6,0.159l3.514-2.027c0.104-0.059,0.176-0.154,0.206-0.269
			c0.03-0.112,0.014-0.229-0.045-0.329C12.908,7.138,12.762,7.053,12.604,7.053z"/>
	</g>
	<g>
		<path fill="#8367D8" d="M5.906,4.721L5.906,4.721c-0.257,0-0.496-0.138-0.624-0.361c-0.198-0.344-0.08-0.785,0.262-0.983
			l3.515-2.029c0.334-0.192,0.792-0.067,0.983,0.262c0.096,0.166,0.122,0.359,0.072,0.545c-0.049,0.187-0.168,0.342-0.335,0.44
			l-3.515,2.03C6.155,4.688,6.031,4.721,5.906,4.721z M9.418,1.532c-0.075,0-0.151,0.021-0.219,0.059L5.685,3.62
			c-0.208,0.121-0.28,0.39-0.16,0.601c0.117,0.202,0.396,0.278,0.599,0.161l3.514-2.03c0.102-0.059,0.175-0.154,0.205-0.269
			c0.03-0.113,0.014-0.231-0.045-0.332C9.721,1.616,9.575,1.532,9.418,1.532z"/>
	</g>
	<g>
		<path fill="#8367D8" d="M14.74,13.498h-7.97v-1.297h0.846v-0.214c0-0.358,0.292-0.65,0.65-0.65h4.988
			c0.358,0,0.65,0.292,0.65,0.65v0.214h0.835V13.498z M7.07,13.197h7.369v-0.695h-0.835v-0.515c0-0.193-0.156-0.35-0.35-0.35H8.267
			c-0.193,0-0.351,0.156-0.351,0.35v0.515H7.07V13.197z"/>
	</g>
</g>
</svg>
