<?xml version="1.0" encoding="utf-8"?>
<!-- Generator: Adobe Illustrator 16.0.0, SVG Export Plug-In . SVG Version: 6.00 Build 0)  -->
<!DOCTYPE svg PUBLIC "-//W3C//DTD SVG 1.1//EN" "http://www.w3.org/Graphics/SVG/1.1/DTD/svg11.dtd">
<svg version="1.1" id="Layer_1" xmlns="http://www.w3.org/2000/svg" xmlns:xlink="http://www.w3.org/1999/xlink" x="0px" y="0px"
	 width="25px" height="25px" viewBox="0 0 25 25" enable-background="new 0 0 25 25" xml:space="preserve">
<path fill="#5D5D5D" d="M23,9h-7V2c0-0.553-0.447-1-1-1h-5C9.447,1,9,1.447,9,2v7H2c-0.552,0-1,0.447-1,1v5c0,0.553,0.448,1,1,1h7v7
	c0,0.553,0.447,1,1,1h5c0.553,0,1-0.447,1-1v-7h7c0.553,0,1-0.447,1-1v-5C24,9.447,23.553,9,23,9z"/>
</svg>
