<?xml version="1.0" encoding="utf-8"?>
<!-- Generator: Adobe Illustrator 16.0.0, SVG Export Plug-In . SVG Version: 6.00 Build 0)  -->
<!DOCTYPE svg PUBLIC "-//W3C//DTD SVG 1.1//EN" "http://www.w3.org/Graphics/SVG/1.1/DTD/svg11.dtd">
<svg version="1.1" id="Layer_1" xmlns="http://www.w3.org/2000/svg" xmlns:xlink="http://www.w3.org/1999/xlink" x="0px" y="0px"
	 width="15px" height="15px" viewBox="0 0 15 15" enable-background="new 0 0 15 15" xml:space="preserve">
<path fill="#252525" d="M1.523,10.334c0.164,0.343,0.356,0.671,0.575,0.979c1.2-0.076,1.664,0.388,1.588,1.589
	c0.308,0.218,0.636,0.411,0.98,0.575c1.016-0.655,1.666-0.474,2.232,0.608c0.198,0.019,0.398,0.028,0.601,0.028
	s0.403-0.01,0.6-0.028c0.567-1.082,1.219-1.264,2.233-0.608c0.345-0.164,0.672-0.357,0.98-0.575
	C11.236,11.7,11.7,11.236,12.9,11.313c0.219-0.308,0.412-0.636,0.575-0.979c-0.653-1.017-0.474-1.666,0.608-2.233
	c0.019-0.198,0.029-0.397,0.029-0.601s-0.011-0.403-0.029-0.601c-1.082-0.567-1.262-1.217-0.608-2.233
	c-0.163-0.343-0.356-0.67-0.575-0.98c-1.2,0.076-1.664-0.386-1.587-1.587c-0.309-0.217-0.636-0.412-0.98-0.575
	C9.318,2.177,8.667,1.997,8.1,0.916C7.902,0.897,7.702,0.887,7.5,0.887s-0.403,0.01-0.601,0.029
	C6.332,1.997,5.682,2.177,4.667,1.524c-0.345,0.163-0.672,0.357-0.98,0.575C3.762,3.3,3.298,3.762,2.098,3.686
	c-0.218,0.31-0.411,0.637-0.575,0.98c0.653,1.017,0.473,1.667-0.608,2.233C0.896,7.097,0.886,7.297,0.886,7.5
	s0.01,0.402,0.029,0.601C1.997,8.668,2.177,9.317,1.523,10.334z M4.031,7.5c0-1.916,1.553-3.468,3.469-3.468
	c1.917,0,3.468,1.552,3.468,3.468S9.416,10.968,7.5,10.968C5.583,10.968,4.031,9.416,4.031,7.5z"/>
</svg>
