<?xml version="1.0" encoding="utf-8"?>
<!-- Generator: Adobe Illustrator 16.0.0, SVG Export Plug-In . SVG Version: 6.00 Build 0)  -->
<!DOCTYPE svg PUBLIC "-//W3C//DTD SVG 1.1//EN" "http://www.w3.org/Graphics/SVG/1.1/DTD/svg11.dtd">
<svg version="1.1" id="Layer_1" xmlns="http://www.w3.org/2000/svg" xmlns:xlink="http://www.w3.org/1999/xlink" x="0px" y="0px"
	 width="15px" height="15px" viewBox="0 0 15 15" enable-background="new 0 0 15 15" xml:space="preserve">
<path fill="#929292" d="M7.513,0C3.378,0,0.026,3.358,0.026,7.5c0,4.143,3.352,7.5,7.487,7.5S15,11.643,15,7.5
	C15,3.358,11.648,0,7.513,0z M11.605,11.15c0,0.248-0.203,0.451-0.451,0.451H9.066V8.425h1.059l0.16-1.235H9.061V6.399
	c0-0.358,0.098-0.604,0.612-0.604h0.654V4.689C10.01,4.655,9.691,4.639,9.373,4.64c-0.941,0-1.585,0.576-1.585,1.635v0.914H6.72
	v1.236h1.073v3.177H3.87c-0.249,0-0.451-0.203-0.451-0.451V3.851c0-0.25,0.202-0.452,0.451-0.452h7.284
	c0.25,0,0.451,0.203,0.451,0.452V11.15z"/>
</svg>
