<?xml version="1.0" encoding="utf-8"?>
<!-- Generator: Adobe Illustrator 16.0.0, SVG Export Plug-In . SVG Version: 6.00 Build 0)  -->
<!DOCTYPE svg PUBLIC "-//W3C//DTD SVG 1.1//EN" "http://www.w3.org/Graphics/SVG/1.1/DTD/svg11.dtd">
<svg version="1.1" id="Layer_1" xmlns="http://www.w3.org/2000/svg" xmlns:xlink="http://www.w3.org/1999/xlink" x="0px" y="0px"
	 width="15px" height="15px" viewBox="0 0 15 15" enable-background="new 0 0 15 15" xml:space="preserve">
<g>
	<path fill="#929292" d="M10.773,5.027c-0.143-0.365-0.432-0.654-0.797-0.796C9.729,4.137,9.465,4.088,9.198,4.086
		C8.754,4.061,8.62,4.061,7.5,4.061v0.007c-1.121,0-1.255,0.004-1.696,0.024C5.536,4.095,5.273,4.144,5.023,4.237
		c-0.36,0.142-0.645,0.427-0.788,0.787c-0.093,0.25-0.142,0.513-0.144,0.78C4.066,6.248,4.066,6.38,4.066,7.501
		c0,1.12,0.003,1.254,0.024,1.699c0.002,0.266,0.051,0.529,0.144,0.779c0.14,0.365,0.426,0.653,0.788,0.797
		c0.25,0.095,0.513,0.145,0.781,0.146c0.442,0.025,0.574,0.025,1.697,0.025c1.122,0,1.255-0.004,1.698-0.025
		c0.266-0.002,0.53-0.052,0.778-0.146c0.365-0.141,0.654-0.43,0.797-0.795c0.094-0.25,0.144-0.513,0.146-0.779
		c0.024-0.444,0.024-0.577,0.024-1.698c0-1.121-0.004-1.254-0.024-1.697C10.917,5.54,10.867,5.277,10.773,5.027z M7.5,9.657
		c-1.191,0-2.157-0.967-2.157-2.156c0-1.191,0.966-2.156,2.157-2.156c1.191,0,2.157,0.965,2.157,2.156
		C9.657,8.69,8.691,9.657,7.5,9.657z M9.741,5.766c-0.279,0-0.505-0.226-0.505-0.505c0-0.279,0.226-0.505,0.505-0.505
		c0.278,0,0.505,0.226,0.505,0.505C10.246,5.54,10.02,5.766,9.741,5.766z"/>
	<circle fill="#929292" cx="7.5" cy="7.5" r="1.399"/>
	<path fill="#929292" d="M7.5,0.003C3.358,0.003,0,3.36,0,7.501C0,11.644,3.358,15,7.5,15c4.143,0,7.5-3.356,7.5-7.499
		C15,3.36,11.643,0.003,7.5,0.003z M11.697,9.231c-0.008,0.35-0.073,0.695-0.196,1.021c-0.216,0.567-0.666,1.019-1.233,1.235
		c-0.328,0.121-0.672,0.188-1.021,0.195c-0.447,0.024-0.592,0.024-1.73,0.024c-1.141,0-1.283-0.004-1.732-0.024
		c-0.349-0.007-0.694-0.074-1.02-0.195c-0.568-0.217-1.018-0.668-1.235-1.235c-0.126-0.319-0.198-0.66-0.212-1.004
		C3.292,8.8,3.292,8.658,3.292,7.518c0-1.141,0.006-1.283,0.026-1.73c0.007-0.35,0.074-0.694,0.196-1.02
		C3.73,4.197,4.18,3.749,4.749,3.531C5.076,3.409,5.42,3.343,5.768,3.336C6.216,3.311,6.359,3.311,7.5,3.311l0.016-0.016
		c1.138,0,1.283,0.005,1.73,0.025c0.35,0.007,0.693,0.073,1.021,0.195c0.567,0.216,1.017,0.667,1.233,1.235
		c0.123,0.328,0.188,0.672,0.196,1.021c0.023,0.447,0.023,0.59,0.023,1.73S11.717,8.784,11.697,9.231z"/>
</g>
</svg>
