<?xml version="1.0" encoding="utf-8"?>
<!-- Generator: Adobe Illustrator 16.0.0, SVG Export Plug-In . SVG Version: 6.00 Build 0)  -->
<!DOCTYPE svg PUBLIC "-//W3C//DTD SVG 1.1//EN" "http://www.w3.org/Graphics/SVG/1.1/DTD/svg11.dtd">
<svg version="1.1" id="Layer_1" xmlns="http://www.w3.org/2000/svg" xmlns:xlink="http://www.w3.org/1999/xlink" x="0px" y="0px"
	 width="15px" height="15px" viewBox="0 0 15 15" enable-background="new 0 0 15 15" xml:space="preserve">
<path fill="#929292" d="M7.5,0.002C3.357,0.002,0,3.361,0,7.501C0,11.646,3.357,15,7.5,15c4.145,0,7.5-3.354,7.5-7.499
	C15,3.36,11.645,0.002,7.5,0.002z M5.148,11.67H3.407V6.064h1.741V11.67z M4.28,5.301c-0.559,0-1.013-0.452-1.013-1.008
	c0-0.559,0.454-1.011,1.013-1.011c0.555,0,1.008,0.452,1.008,1.011C5.288,4.849,4.835,5.301,4.28,5.301z M11.673,11.67H9.936V8.943
	c0-0.65-0.011-1.486-0.904-1.486c-0.891,0-1.044,0.706-1.044,1.438v2.774h-1.74L6.24,6.064h1.667v0.765H7.94
	c0.341-0.58,0.972-0.925,1.646-0.9c1.766,0,2.087,1.159,2.087,2.667V11.67z"/>
</svg>
