<?xml version="1.0" encoding="utf-8"?>
<!-- Generator: Adobe Illustrator 16.0.0, SVG Export Plug-In . SVG Version: 6.00 Build 0)  -->
<!DOCTYPE svg PUBLIC "-//W3C//DTD SVG 1.1//EN" "http://www.w3.org/Graphics/SVG/1.1/DTD/svg11.dtd">
<svg version="1.1" id="Layer_1" xmlns="http://www.w3.org/2000/svg" xmlns:xlink="http://www.w3.org/1999/xlink" x="0px" y="0px"
	 width="300px" height="100px" viewBox="0 0 300 100" enable-background="new 0 0 300 100" xml:space="preserve">
<g>
	<g>
		<path fill="#8367D8" d="M43.474,28.253l-14.567,8.414c-1.149,0.665-2.617,0.268-3.278-0.882c-0.659-1.149-0.277-2.615,0.875-3.283
			l14.568-8.412c1.154-0.663,2.618-0.267,3.278,0.875C45.019,26.112,44.624,27.585,43.474,28.253z M30.108,38.737l14.569-8.411
			l8.414,14.567l-14.567,8.412L30.108,38.737z M56.691,51.143l-14.568,8.405c-1.149,0.663-2.621,0.269-3.281-0.877
			c-0.661-1.154-0.265-2.625,0.873-3.284l14.568-8.406c1.152-0.664,2.617-0.268,3.285,0.881
			C58.243,49.004,57.844,50.48,56.691,51.143z M6.489,57.919l26.618-13.976l2.405,4.16L10.099,64.168
			c-1.724,0.998-3.926,0.407-4.926-1.317C4.179,61.122,4.773,58.921,6.489,57.919z M32.874,70.059c0-1.327,1.081-2.397,2.404-2.397
			h21.626c1.332,0,2.397,1.07,2.397,2.397c0,1.329,0,2.402,0,2.402l2.485-0.057l-0.08,2.459H30.478l-0.114-2.309l2.367-0.094
			C32.727,72.461,32.874,71.388,32.874,70.059z"/>
	</g>
	<g>
		<path fill="#8367D8" d="M89.421,27.556h2.088l16.549,42.216c0.667,1.708,2.03,2.56,4.087,2.56h1.437v2.342H95.172v-2.342h1.467
			c1.915,0,3.266-0.206,4.055-0.624c0.542-0.291,0.813-0.736,0.813-1.342c0-0.354-0.073-0.728-0.219-1.123l-3.817-9.797H79.218
			l-2.143,5.616c-0.562,1.497-0.842,2.683-0.842,3.557c0,1.02,0.473,1.894,1.42,2.621c0.946,0.73,2.325,1.092,4.134,1.092h1.561
			v2.342H66.623v-2.342c1.788,0,3.203-0.39,4.242-1.17c1.041-0.779,1.997-2.262,2.871-4.446L89.421,27.556z M88.511,36.449
			l-8.285,20.562h16.299L88.511,36.449z"/>
		<path fill="#8367D8" d="M125.347,44.905v19.376c0,2.372,0.597,4.203,1.79,5.49c1.193,1.291,2.734,1.936,4.624,1.936
			c2.326,0,4.302-0.941,5.932-2.823c1.63-1.883,2.444-4.238,2.444-7.066V50.865c0-1-0.359-1.774-1.076-2.326
			c-0.719-0.55-2.097-0.858-4.135-0.92v-2.184l10.265-0.53v23.994c0,1.104,0.312,1.952,0.937,2.542
			c0.624,0.593,1.498,0.89,2.621,0.89h1.841v2.093l-9.829,0.218l-0.624-5.742c-1.745,2.059-3.5,3.608-5.266,4.649
			c-1.765,1.042-3.551,1.56-5.358,1.56c-2.638,0-4.849-0.883-6.635-2.652c-1.808-1.747-2.711-4.712-2.711-8.893V50.865
			c0-1.125-0.447-1.977-1.341-2.56c-0.624-0.416-1.904-0.645-3.838-0.687v-2.184L125.347,44.905z"/>
		<path fill="#8367D8" d="M176.708,65.997l2.027,0.593c-1.622,5.97-5.199,8.956-10.732,8.956c-4.058,0-7.376-1.342-9.955-4.023
			c-2.58-2.686-3.869-6.253-3.869-10.704c0-5.159,1.415-9.158,4.243-11.997c2.83-2.841,6.157-4.259,9.983-4.259
			c2.871,0,5.244,0.79,7.114,2.371c1.873,1.582,2.811,3.339,2.811,5.274c0,1.164-0.349,2.126-1.045,2.885
			c-0.696,0.761-1.526,1.141-2.482,1.141c-0.935,0-1.727-0.322-2.37-0.964c-0.645-0.643-0.966-1.421-0.966-2.335
			c0-0.91,0.353-1.781,1.059-2.611c0.334-0.394,0.5-0.705,0.5-0.933c0-0.602-0.407-1.187-1.217-1.757
			c-0.812-0.57-1.915-0.855-3.308-0.855c-2.539,0-4.463,0.925-5.772,2.774c-1.873,2.681-2.809,6.212-2.809,10.597
			c0,4.175,0.832,7.34,2.497,9.488c1.664,2.152,3.785,3.226,6.365,3.226C172.339,72.861,174.981,70.575,176.708,65.997z"/>
		<path fill="#8367D8" d="M190.436,33.516h2.091v11.919h9.455v2.871h-9.455v18.753c0,1.623,0.385,2.866,1.154,3.728
			c0.77,0.864,1.747,1.296,2.934,1.296c1.413,0,2.622-0.655,3.62-1.967c0.998-1.309,1.579-3.474,1.747-6.49h2.092
			c-0.126,3.892-1.011,6.778-2.652,8.659c-1.646,1.884-3.778,2.824-6.397,2.824c-2.414,0-4.301-0.659-5.663-1.98
			c-1.365-1.321-2.043-3.053-2.043-5.195V48.306h-5.088v-2.185c2.318-0.395,4.082-1.362,5.292-2.901
			C189.319,40.911,190.289,37.676,190.436,33.516z"/>
		<path fill="#8367D8" d="M207.035,45.435l11.64-0.343V70.24c0,0.688,0.166,1.176,0.498,1.467c0.478,0.418,1.081,0.624,1.81,0.624
			h3.309v2.342h-16.632v-2.342h3.089c0.915,0,1.588-0.223,2.013-0.67c0.427-0.447,0.64-1.099,0.64-1.951V51.301
			c0-1.164-0.332-2.043-0.998-2.637c-0.666-0.592-1.654-0.889-2.964-0.889h-2.403V45.435z M215.147,27.993
			c0.938,0,1.758,0.354,2.467,1.061c0.706,0.708,1.061,1.54,1.061,2.497c0,0.936-0.342,1.747-1.03,2.434
			c-0.685,0.686-1.509,1.029-2.464,1.029c-0.958,0-1.784-0.348-2.482-1.044c-0.696-0.698-1.045-1.514-1.045-2.45
			s0.354-1.758,1.063-2.465C213.421,28.346,214.232,27.993,215.147,27.993z"/>
		<path fill="#8367D8" d="M241.515,44.562c3.932,0,7.233,1.418,9.906,4.259c2.673,2.839,4.011,6.579,4.011,11.216
			c0,3.205-0.6,5.934-1.794,8.193c-1.196,2.255-2.903,4.04-5.118,5.35c-2.215,1.312-4.602,1.966-7.161,1.966
			c-3.786,0-6.995-1.437-9.625-4.307c-2.632-2.87-3.948-6.594-3.948-11.17c0-4.597,1.32-8.331,3.963-11.202
			C234.388,45.996,237.646,44.562,241.515,44.562z M241.515,46.777c-2.33,0-4.244,1.056-5.742,3.167s-2.247,5.444-2.247,10
			c0,4.64,0.745,8.028,2.231,10.171c1.487,2.143,3.407,3.215,5.758,3.215c2.434,0,4.405-1.072,5.912-3.215
			c1.508-2.143,2.263-5.646,2.263-10.514c0-4.514-0.742-7.779-2.23-9.798C245.971,47.786,243.99,46.777,241.515,46.777z"/>
		<path fill="#8367D8" d="M259.675,45.435l9.704-0.593c0.396,1.831,0.687,3.973,0.873,6.427c1.312-2.122,2.856-3.713,4.635-4.773
			c1.779-1.062,3.792-1.591,6.037-1.591c1.936,0,3.558,0.379,4.869,1.138c1.31,0.76,2.358,1.961,3.15,3.604
			c0.792,1.644,1.187,3.485,1.187,5.522v14.228c0,1.062,0.236,1.816,0.717,2.264c0.478,0.447,1.279,0.67,2.403,0.67h2.059v2.342
			h-15.413v-2.342h1.466c1.372,0,2.33-0.219,2.87-0.654c0.541-0.438,0.811-1.092,0.811-1.967V57.199
			c0-2.725-0.415-4.742-1.247-6.054c-1.166-1.873-2.932-2.808-5.305-2.808c-2.353,0-4.313,0.946-5.882,2.839
			c-1.571,1.894-2.356,4.358-2.356,7.395v10.826c0,1.062,0.243,1.816,0.732,2.264c0.49,0.447,1.296,0.67,2.42,0.67h2.028v2.342
			h-15.476v-2.342h2.026c1.019,0,1.794-0.206,2.326-0.624c0.528-0.417,0.794-0.935,0.794-1.559V51.27
			c0-1.248-0.338-2.194-1.015-2.839c-0.674-0.645-1.647-0.967-2.915-0.967h-1.499V45.435z"/>
	</g>
</g>
</svg>
