<?xml version="1.0" encoding="utf-8"?>
<!-- Generator: Adobe Illustrator 16.0.0, SVG Export Plug-In . SVG Version: 6.00 Build 0)  -->
<!DOCTYPE svg PUBLIC "-//W3C//DTD SVG 1.1//EN" "http://www.w3.org/Graphics/SVG/1.1/DTD/svg11.dtd">
<svg version="1.1" id="Layer_1" xmlns="http://www.w3.org/2000/svg" xmlns:xlink="http://www.w3.org/1999/xlink" x="0px" y="0px"
	 width="600px" height="900px" viewBox="0 0 600 900" enable-background="new 0 0 600 900" xml:space="preserve">
<g>
	<rect fill="#FFFFFF" width="600" height="900"/>
	<path fill="#D9D9D9" d="M640,940H-40V-40h680V940z M40,860h520V40H40V860z"/>
	<g>
		<g>
			<path fill="#D9D9D9" d="M252.753,345.628v-51.539h10.125l21.094,34.418v-34.418h9.668v51.539h-10.441l-20.777-33.609v33.609
				H252.753z"/>
		</g>
		<g>
			<path fill="#D9D9D9" d="M302.534,320.175c0-5.25,0.785-9.656,2.355-13.219c1.172-2.625,2.771-4.98,4.799-7.066
				c2.027-2.086,4.248-3.633,6.662-4.641c3.211-1.359,6.914-2.039,11.109-2.039c7.594,0,13.67,2.355,18.229,7.066
				s6.838,11.262,6.838,19.652c0,8.32-2.262,14.831-6.785,19.529c-4.523,4.699-10.57,7.049-18.141,7.049
				c-7.664,0-13.758-2.338-18.281-7.014S302.534,328.379,302.534,320.175z M313.257,319.824c0,5.836,1.348,10.26,4.043,13.271
				c2.695,3.012,6.117,4.518,10.266,4.518s7.553-1.494,10.213-4.482s3.99-7.471,3.99-13.447c0-5.906-1.295-10.313-3.885-13.219
				c-2.59-2.906-6.029-4.359-10.318-4.359s-7.746,1.471-10.371,4.412C314.569,309.458,313.257,313.895,313.257,319.824z"/>
		</g>
		<g>
			<path fill="#D9D9D9" d="M188.329,432.028v-51.539h10.406v51.539H188.329z"/>
		</g>
		<g>
			<path fill="#D9D9D9" d="M208.509,432.028v-51.539h15.574l9.352,35.156l9.246-35.156h15.609v51.539h-9.668v-40.57l-10.23,40.57
				h-10.02l-10.195-40.57v40.57H208.509z"/>
		</g>
		<g>
			<path fill="#D9D9D9" d="M315.103,432.028h-11.32l-4.5-11.707h-20.602l-4.254,11.707h-11.039l20.074-51.539h11.004
				L315.103,432.028z M295.942,411.638l-7.102-19.125l-6.961,19.125H295.942z"/>
		</g>
		<g>
			<path fill="#D9D9D9" d="M344.599,413.079v-8.684h22.43v20.531c-2.18,2.109-5.338,3.967-9.475,5.572s-8.326,2.408-12.568,2.408
				c-5.391,0-10.09-1.13-14.098-3.393c-4.008-2.262-7.02-5.496-9.035-9.703c-2.016-4.207-3.023-8.783-3.023-13.729
				c0-5.367,1.125-10.137,3.375-14.309c2.25-4.171,5.543-7.371,9.879-9.598c3.305-1.71,7.418-2.566,12.34-2.566
				c6.398,0,11.396,1.342,14.994,4.025c3.598,2.684,5.912,6.393,6.943,11.127l-10.336,1.934c-0.727-2.531-2.092-4.529-4.096-5.994
				c-2.004-1.464-4.506-2.197-7.506-2.197c-4.547,0-8.162,1.441-10.846,4.324s-4.025,7.16-4.025,12.832
				c0,6.117,1.359,10.705,4.078,13.764s6.281,4.588,10.688,4.588c2.18,0,4.365-0.427,6.557-1.283
				c2.191-0.855,4.072-1.893,5.643-3.111v-6.539H344.599z"/>
		</g>
		<g>
			<path fill="#D9D9D9" d="M376.626,432.028v-51.539h38.215v8.719h-27.809v11.426h25.875v8.684h-25.875v14.027h28.793v8.684H376.626
				z"/>
		</g>
		<g>
			<path fill="#D9D9D9" d="M152.47,518.429h-11.32l-4.5-11.707h-20.602l-4.254,11.707h-11.039l20.074-51.539h11.004L152.47,518.429z
				 M133.31,498.038l-7.102-19.125l-6.961,19.125H133.31z"/>
		</g>
		<g>
			<path fill="#D9D9D9" d="M165.794,518.429l-18.422-51.539h11.285l13.043,38.145l12.621-38.145h11.039l-18.457,51.539H165.794z"/>
		</g>
		<g>
			<path fill="#D9D9D9" d="M241.802,518.429h-11.32l-4.5-11.707H205.38l-4.254,11.707h-11.039l20.074-51.539h11.004L241.802,518.429
				z M222.642,498.038l-7.102-19.125l-6.961,19.125H222.642z"/>
		</g>
		<g>
			<path fill="#D9D9D9" d="M247.603,518.429v-51.117h10.406v42.434h25.875v8.684H247.603z"/>
		</g>
		<g>
			<path fill="#D9D9D9" d="M290.985,518.429V466.89h10.406v51.539H290.985z"/>
		</g>
		<g>
			<path fill="#D9D9D9" d="M357.782,518.429h-11.32l-4.5-11.707H321.36l-4.254,11.707h-11.039l20.074-51.539h11.004L357.782,518.429
				z M338.622,498.038l-7.102-19.125l-6.961,19.125H338.622z"/>
		</g>
		<g>
			<path fill="#D9D9D9" d="M363.337,466.89h20.602c4.078,0,7.119,0.17,9.123,0.51s3.797,1.049,5.379,2.127s2.9,2.514,3.955,4.307
				s1.582,3.803,1.582,6.029c0,2.414-0.65,4.629-1.951,6.645s-3.064,3.527-5.291,4.535c3.141,0.914,5.555,2.473,7.242,4.676
				s2.531,4.793,2.531,7.77c0,2.344-0.545,4.623-1.635,6.838s-2.578,3.984-4.465,5.309s-4.213,2.139-6.979,2.443
				c-1.734,0.188-5.918,0.305-12.551,0.352h-17.543V466.89z M373.743,475.468v11.918h6.82c4.055,0,6.574-0.059,7.559-0.176
				c1.781-0.211,3.182-0.826,4.201-1.846s1.529-2.361,1.529-4.025c0-1.594-0.439-2.889-1.318-3.885s-2.186-1.6-3.92-1.811
				c-1.031-0.117-3.996-0.176-8.895-0.176H373.743z M373.743,495.964v13.781h9.633c3.75,0,6.129-0.105,7.137-0.316
				c1.547-0.281,2.807-0.967,3.779-2.057s1.459-2.549,1.459-4.377c0-1.547-0.375-2.859-1.125-3.938s-1.834-1.863-3.252-2.355
				s-4.494-0.738-9.229-0.738H373.743z"/>
		</g>
		<g>
			<path fill="#D9D9D9" d="M415.579,518.429v-51.117h10.406v42.434h25.875v8.684H415.579z"/>
		</g>
		<g>
			<path fill="#D9D9D9" d="M459.278,518.429V466.89h38.215v8.719h-27.809v11.426h25.875v8.684h-25.875v14.027h28.793v8.684H459.278z
				"/>
		</g>
	</g>
</g>
</svg>
