<?xml version="1.0" encoding="utf-8"?>
<!-- Generator: Adobe Illustrator 16.0.0, SVG Export Plug-In . SVG Version: 6.00 Build 0)  -->
<!DOCTYPE svg PUBLIC "-//W3C//DTD SVG 1.1//EN" "http://www.w3.org/Graphics/SVG/1.1/DTD/svg11.dtd">
<svg version="1.1" id="Layer_1" xmlns="http://www.w3.org/2000/svg" xmlns:xlink="http://www.w3.org/1999/xlink" x="0px" y="0px"
	 width="15px" height="15px" viewBox="0 0 15 15" enable-background="new 0 0 15 15" xml:space="preserve">
<path fill="#929292" d="M7.5,0.03C3.358,0.03,0,3.381,0,7.515C0,11.648,3.358,15,7.5,15c4.143,0,7.5-3.352,7.5-7.485
	C15,3.381,11.643,0.03,7.5,0.03z M10.846,5.804c0,0.075,0,0.149,0,0.224c0,2.273-1.728,4.894-4.905,4.894
	c-0.939,0.002-1.858-0.268-2.647-0.773c0.137,0.016,0.274,0.023,0.411,0.023c0.775,0.002,1.528-0.255,2.139-0.732
	C5.107,9.428,4.46,8.947,4.235,8.247c0.258,0.048,0.525,0.037,0.778-0.03C4.209,8.055,3.63,7.35,3.63,6.53V6.508
	c0.24,0.133,0.508,0.206,0.781,0.215C3.659,6.217,3.428,5.217,3.882,4.434c0.879,1.07,2.171,1.72,3.554,1.787
	C7.407,6.092,7.393,5.96,7.393,5.828c0-0.474,0.197-0.927,0.543-1.251c0.694-0.652,1.785-0.618,2.437,0.074
	c0.385-0.075,0.756-0.217,1.094-0.417c-0.127,0.399-0.396,0.738-0.758,0.953c0.342-0.041,0.675-0.133,0.991-0.271
	C11.471,5.261,11.18,5.563,10.846,5.804z"/>
</svg>
