<?xml version="1.0" encoding="utf-8"?>
<!-- Generator: Adobe Illustrator 16.0.0, SVG Export Plug-In . SVG Version: 6.00 Build 0)  -->
<!DOCTYPE svg PUBLIC "-//W3C//DTD SVG 1.1//EN" "http://www.w3.org/Graphics/SVG/1.1/DTD/svg11.dtd">
<svg version="1.1" id="Layer_1" xmlns="http://www.w3.org/2000/svg" xmlns:xlink="http://www.w3.org/1999/xlink" x="0px" y="0px"
	 width="15px" height="15px" viewBox="0 0 15 15" enable-background="new 0 0 15 15" xml:space="preserve">
<path fill="#D8D8D8" d="M7.5,13.727c-0.141,0-0.26-0.049-0.357-0.146L2.084,8.699c-0.055-0.043-0.129-0.113-0.223-0.21
	C1.766,8.392,1.616,8.215,1.41,7.958C1.205,7.701,1.021,7.438,0.859,7.167C0.697,6.897,0.553,6.57,0.426,6.187
	S0.234,5.43,0.234,5.067c0-1.189,0.344-2.119,1.03-2.789C1.951,1.608,2.9,1.273,4.111,1.273c0.334,0,0.676,0.058,1.025,0.174
	C5.484,1.563,5.81,1.72,6.109,1.917S6.668,2.3,6.884,2.473S7.305,2.83,7.5,3.024C7.694,2.83,7.9,2.646,8.117,2.473
	C8.332,2.3,8.59,2.115,8.891,1.917s0.625-0.354,0.973-0.47c0.35-0.116,0.691-0.174,1.025-0.174c1.211,0,2.16,0.335,2.846,1.005
	c0.688,0.67,1.031,1.6,1.031,2.789c0,1.195-0.619,2.411-1.857,3.648l-5.051,4.865C7.76,13.678,7.641,13.727,7.5,13.727"/>
</svg>
