<?xml version="1.0" encoding="utf-8"?>
<!-- Generator: Adobe Illustrator 16.0.0, SVG Export Plug-In . SVG Version: 6.00 Build 0)  -->
<!DOCTYPE svg PUBLIC "-//W3C//DTD SVG 1.1//EN" "http://www.w3.org/Graphics/SVG/1.1/DTD/svg11.dtd">
<svg version="1.1" id="Layer_1" xmlns="http://www.w3.org/2000/svg" xmlns:xlink="http://www.w3.org/1999/xlink" x="0px" y="0px"
	 width="15px" height="15px" viewBox="0 0 15 15" enable-background="new 0 0 15 15" xml:space="preserve">
<path fill="#252525" d="M12.02,3.168c-0.151-1.605-1.09-1.778-1.485-1.778c-0.64,0-1.408,0.408-2.164,1.148
	C7.892,3.007,7.652,3.322,7.5,3.578C7.349,3.322,7.109,3.007,6.631,2.539C5.875,1.798,5.106,1.391,4.467,1.391
	c-0.396,0-1.334,0.173-1.485,1.778c-0.137,1.453,0.785,1.55,1.335,1.608l0.095,0.01c0.13,0.015,0.386,0.021,0.699,0.021
	c0.362,0,0.801-0.008,1.211-0.021h2.355C9.087,4.8,9.527,4.808,9.889,4.808c0.313,0,0.567-0.006,0.698-0.021l0.097-0.01
	C11.234,4.719,12.154,4.622,12.02,3.168z M4.394,4.046c-0.56-0.06-0.749-0.079-0.68-0.808C3.784,2.5,4.037,2.126,4.467,2.126
	c0.439,0,1.041,0.342,1.649,0.938c0.489,0.479,0.696,0.768,0.801,0.964C6.164,4.064,4.843,4.095,4.493,4.056L4.394,4.046z
	 M10.605,4.046l-0.099,0.01c-0.35,0.039-1.672,0.009-2.426-0.027c0.106-0.196,0.313-0.485,0.803-0.964
	c0.607-0.597,1.209-0.938,1.648-0.938c0.43,0,0.684,0.374,0.752,1.111C11.355,3.967,11.166,3.986,10.605,4.046z"/>
<polygon fill="#252525" points="9,4.924 9,9.686 6,9.686 6,4.924 1,4.924 1,7.924 2,7.924 2,12.924 13,12.924 13,7.924 14,7.924 
	14,4.924 "/>
</svg>
