<?xml version="1.0" encoding="utf-8"?>
<!-- Generator: Adobe Illustrator 16.0.0, SVG Export Plug-In . SVG Version: 6.00 Build 0)  -->
<!DOCTYPE svg PUBLIC "-//W3C//DTD SVG 1.1//EN" "http://www.w3.org/Graphics/SVG/1.1/DTD/svg11.dtd">
<svg version="1.1" id="Layer_1" xmlns="http://www.w3.org/2000/svg" xmlns:xlink="http://www.w3.org/1999/xlink" x="0px" y="0px"
	 width="25px" height="25px" viewBox="0 0 25 25" enable-background="new 0 0 25 25" xml:space="preserve">
<path fill="#FFFFFF" d="M20.031,2.494L12.5,10.025L4.97,2.494c-0.234-0.234-0.614-0.234-0.849,0L2.494,4.121
	c-0.234,0.234-0.234,0.614,0,0.848l7.531,7.531l-7.53,7.53c-0.234,0.234-0.234,0.614,0,0.849l1.626,1.627
	c0.234,0.234,0.615,0.234,0.85,0l7.529-7.531l7.531,7.531c0.233,0.233,0.613,0.234,0.848,0l1.627-1.627
	c0.234-0.234,0.234-0.615,0-0.849l-7.53-7.53l7.53-7.531c0.234-0.234,0.234-0.614,0-0.848l-1.627-1.626
	C20.645,2.26,20.266,2.26,20.031,2.494z"/>
</svg>
