<?xml version="1.0" encoding="utf-8"?>
<!-- Generator: Adobe Illustrator 16.0.0, SVG Export Plug-In . SVG Version: 6.00 Build 0)  -->
<!DOCTYPE svg PUBLIC "-//W3C//DTD SVG 1.1//EN" "http://www.w3.org/Graphics/SVG/1.1/DTD/svg11.dtd">
<svg version="1.1" id="Layer_1" xmlns="http://www.w3.org/2000/svg" xmlns:xlink="http://www.w3.org/1999/xlink" x="0px" y="0px"
	 width="25px" height="25px" viewBox="0 0 25 25" enable-background="new 0 0 25 25" xml:space="preserve">
<path fill="#D8D8D8" d="M22.755,20.424l-7.425-7.425l7.424-7.424c0.391-0.391,0.391-1.024,0-1.414L21.34,2.747
	c-0.391-0.391-1.023-0.391-1.414,0l-7.424,7.424L5.077,2.746c-0.391-0.391-1.024-0.391-1.414,0L2.249,4.16
	c-0.391,0.391-0.391,1.023,0,1.414l7.424,7.425l-7.425,7.425c-0.391,0.391-0.391,1.023,0,1.414l1.414,1.415
	c0.391,0.39,1.023,0.39,1.414,0l7.425-7.426l7.424,7.425c0.391,0.391,1.023,0.391,1.414,0l1.415-1.414
	C23.145,21.447,23.145,20.814,22.755,20.424z"/>
</svg>
